<svg id="Layer_1" height="512" viewBox="0 0 128 128" width="512" xmlns="http://www.w3.org/2000/svg" data-name="Layer 1"><path d="m121.63 4.75h-108.46a1.75 1.75 0 0 0 -1.75 1.75v16.877h-4.92a1.75 1.75 0 0 0 -1.75 1.75v6a1.75 1.75 0 0 0 1.75 1.75h4.92v14.415h-4.92a1.75 1.75 0 0 0 -1.75 1.75v6a1.75 1.75 0 0 0 1.75 1.75h4.92v14.416h-4.92a1.75 1.75 0 0 0 -1.75 1.75v6a1.75 1.75 0 0 0 1.75 1.75h4.92v14.415h-4.92a1.75 1.75 0 0 0 -1.75 1.75v6a1.75 1.75 0 0 0 1.75 1.75h4.92v16.877a1.75 1.75 0 0 0 1.75 1.75h108.46a1.75 1.75 0 0 0 1.75-1.75v-115a1.75 1.75 0 0 0 -1.75-1.75zm-11.82 115h-6.56v-111.5h6.56zm-101.56-92.873h4.891.029s.019 0 .029 0h4.884v2.5h-9.833zm0 23.915h9.833v2.5h-4.894-.019-.019-4.901zm0 23.916h4.9.019.019 4.894v2.5h-9.832zm0 23.915h9.833v2.5h-4.883c-.01 0-.019 0-.029 0s-.019 0-.029 0h-4.892zm6.67 6h4.913a1.749 1.749 0 0 0 1.75-1.75v-6a1.749 1.749 0 0 0 -1.75-1.75h-4.913v-14.415h4.913a1.749 1.749 0 0 0 1.75-1.75v-6a1.749 1.749 0 0 0 -1.75-1.75h-4.913v-14.416h4.913a1.749 1.749 0 0 0 1.75-1.75v-6a1.749 1.749 0 0 0 -1.75-1.75h-4.913v-14.415h4.913a1.749 1.749 0 0 0 1.75-1.75v-6a1.749 1.749 0 0 0 -1.75-1.75h-4.913v-15.127h84.83v111.5h-84.83zm104.96 15.127h-6.57v-111.5h6.57z"/><path d="m37.2 82.71h40.26a1.75 1.75 0 0 0 1.75-1.75v-10.36a11.874 11.874 0 0 0 -11.86-11.86h-2.2v-2.39a15.459 15.459 0 0 0 7.642-11.435 1.735 1.735 0 0 0 1.9-1.667c.352-8.995-.95-14.524-4.223-17.927-2.794-2.905-6.969-4.258-13.138-4.258s-10.342 1.353-13.131 4.258c-3.272 3.4-4.574 8.932-4.223 17.927a1.75 1.75 0 0 0 1.482 1.661 1.728 1.728 0 0 0 .268.021c.053 0 .1-.02.156-.025a15.476 15.476 0 0 0 7.637 11.444v2.391h-2.2a11.879 11.879 0 0 0 -11.87 11.86v10.36a1.75 1.75 0 0 0 1.75 1.75zm15.82-24.9a15.173 15.173 0 0 0 8.63 0v4.28a4.315 4.315 0 1 1 -8.63 0zm-6.3-30.067c2.09-2.173 5.463-3.184 10.615-3.184s8.526 1.011 10.615 3.184c2.237 2.325 3.284 6.239 3.3 12.509-2.727-1.72-6.613-4.693-7.108-6.831a1.748 1.748 0 0 0 -1.1-1.279 1.809 1.809 0 0 0 -.593-.1 1.666 1.666 0 0 0 -1.048.369c-1.028.644-8.147 2.617-12.1 1.909-2.588-.469-4.342.13-5.641 1.346.428-3.682 1.427-6.223 3.058-7.919zm-1.48 15.107v-3.61c.877-1.51 1.752-1.779 3.439-1.474 3.749.678 9.655-.522 12.846-1.644 1.675 2.854 5.291 5.483 7.892 7.091a12.014 12.014 0 0 1 -6.783 10.514 12.224 12.224 0 0 1 -10.595 0 12.033 12.033 0 0 1 -6.799-10.877zm-6.29 27.75a8.374 8.374 0 0 1 8.37-8.36h2.208a7.808 7.808 0 0 0 15.614 0h2.208a8.369 8.369 0 0 1 8.36 8.36v8.61h-36.76z"/><path d="m77.463 92.81h-40.263a1.75 1.75 0 0 0 0 3.5h40.263a1.75 1.75 0 0 0 0-3.5z"/><path d="m77.463 103.438h-40.263a1.75 1.75 0 1 0 0 3.5h40.263a1.75 1.75 0 0 0 0-3.5z"/></svg>